HIERARCHY
ROOT Hips
{
	OFFSET 0.00000 0.00000 0.00000
	CHANNELS 6 Xposition Yposition Zposition Zrotation Yrotation Xrotation 
	JOINT LHipJoint
	{
		OFFSET 0 0 0
		CHANNELS 3 Zrotation Yrotation Xrotation
		JOINT LeftHip
		{
			OFFSET 1.39187 -1.60231 0.69152
			CHANNELS 3 Zrotation Yrotation Xrotation
			JOINT LeftKnee
			{
				OFFSET 2.43314 -6.68499 0.00000
				CHANNELS 3 Zrotation Yrotation Xrotation
				JOINT LeftAnkle
				{
					OFFSET 2.32059 -6.37578 0.00000
					CHANNELS 3 Zrotation Yrotation Xrotation
					JOINT LeftToe
					{
						OFFSET 0.23021 -0.63250 1.71305
						CHANNELS 3 Zrotation Yrotation Xrotation
						End Site
						{
							OFFSET 0.00000 -0.00000 0.91647
						}
					}
				}
			}
		}
	}
	JOINT RHipJoint
	{
		OFFSET 0 0 0
		CHANNELS 3 Zrotation Yrotation Xrotation
		JOINT RightHip
		{
			OFFSET -1.19407 -1.60231 0.69152
			CHANNELS 3 Zrotation Yrotation Xrotation
			JOINT RightKnee
			{
				OFFSET -2.44411 -6.71513 0.00000
				CHANNELS 3 Zrotation Yrotation Xrotation
				JOINT RightAnkle
				{
					OFFSET -2.31924 -6.37207 0.00000
					CHANNELS 3 Zrotation Yrotation Xrotation
					JOINT RightToe
					{
						OFFSET -0.19473 -0.53502 1.87724
						CHANNELS 3 Zrotation Yrotation Xrotation
						End Site
						{
							OFFSET -0.00000 -0.00000 0.98293
						}
					}
				}
			}
		}
	}
	JOINT lowerback
	{
		OFFSET 0 0 0
		CHANNELS 3 Zrotation Yrotation Xrotation
		JOINT Chest
		{
			OFFSET -0.01120 1.87307 0.09613
			CHANNELS 3 Zrotation Yrotation Xrotation
			JOINT Chest2
			{
				OFFSET 0.01099 1.87818 0.04834
				CHANNELS 3 Zrotation Yrotation Xrotation
				JOINT lowerneck
				{
					OFFSET 0 0 0
					CHANNELS 3 Zrotation Yrotation Xrotation
					JOINT Neck
					{
						OFFSET 0.01702 1.40324 -0.12579
						CHANNELS 3 Zrotation Yrotation Xrotation
						JOINT Head
						{
							OFFSET -0.04239 1.38587 -0.01614
							CHANNELS 3 Zrotation Yrotation Xrotation
							End Site
							{
								OFFSET -0.02510 1.47031 -0.00154
							}
						}
					}
				}
				JOINT LeftCollar
				{
					OFFSET 0 0 0
					CHANNELS 3 Zrotation Yrotation Xrotation
					JOINT LeftShoulder
					{
						OFFSET 2.95699 0.62343 0.11653
CHANNELS 3 Zrotation Xrotation Yrotation
						JOINT LeftElbow
						{
OFFSET 0 -4.683820 -0.000000
CHANNELS 3 Zrotation Xrotation Yrotation
							JOINT LeftWrist
							{
OFFSET 0 -2.981240 -0.000000
CHANNELS 3 Zrotation Xrotation Yrotation
								JOINT lhand
								{
									OFFSET 0 0 0
CHANNELS 3 Zrotation Xrotation Yrotation
									JOINT LFingers
									{
OFFSET 0 -0.707590 0.000000
CHANNELS 3 Zrotation Xrotation Yrotation
										End Site
										{
OFFSET 0 -0.570480 0.000000
										}
									}
								}
								JOINT LThumb
								{
OFFSET 0 0.000000 0.000000
CHANNELS 3 Zrotation Xrotation Yrotation
									End Site
									{
OFFSET 0 -0.579190 0.579190
									}
								}
							}
						}
					}
				}
				JOINT RightCollar
				{
					OFFSET 0 0 0
					CHANNELS 3 Zrotation Yrotation Xrotation
					JOINT RightShoulder
					{
						OFFSET -2.99027 0.88714 -0.02793
CHANNELS 3 Zrotation Xrotation Yrotation
						JOINT RightElbow
						{
OFFSET 0 -4.758760 -0.000000
CHANNELS 3 Zrotation Xrotation Yrotation
							JOINT RightWrist
							{
OFFSET 0 -2.932930 -0.000000
CHANNELS 3 Zrotation Xrotation Yrotation
								JOINT rhand
								{
									OFFSET 0 0 0
CHANNELS 3 Zrotation Xrotation Yrotation
									JOINT RFingers
									{
OFFSET 0 -0.831750 0.000000
CHANNELS 3 Zrotation Xrotation Yrotation
										End Site
										{
OFFSET 0 -0.670580 0.000000
										}
									}
								}
								JOINT RThumb
								{
OFFSET 0 0.000000 0.000000
CHANNELS 3 Zrotation Xrotation Yrotation
									End Site
									{
OFFSET 0 -0.680820 0.680820
									}
								}
							}
						}
					}
				}
			}
		}
	}
}
MOTION
Frames: 12
Frame Time: 0.008333333333333333
48.013800 16.615500 -0.801900 157.164000 -88.963000 -142.064000 0.000000 0.000000 0.000000 -15.634600 -22.571800 -17.204200 2.050500 8.970400 25.702700 1.045500 3.166500 -20.699600 0.092100 -1.957400 -5.387800 0.000000 0.000000 0.000000 16.710500 21.453800 -13.914400 -1.384900 -7.446000 21.043700 1.106000 -18.455900 -10.081000 -1.346900 7.347400 -20.748600 -5.062200 -0.027900 -13.617100 1.142800 0.145000 -7.427600 4.071000 0.076500 -0.238900 -9.119500 -4.335000 6.999400 7.365000 -6.580500 2.818000 4.151700 -3.470100 0.268900 0.000000 -0.000000 0.000000 -7.034900 2.001200 -5.997500 7.190100 -12.231800 0.771400 -8.955900 50.342000 -22.192000 0.000000 0.000000 0.000000 -7.125000 0.000000 0.000000 -36.134000 48.558100 3.611700 0.000000 -0.000000 0.000000 4.492600 6.014800 9.298100 -7.619300 -12.933900 -0.864900 -12.787700 31.764100 -11.599700 0.000000 0.000000 0.000000 7.125000 0.000000 -0.000000 10.046000 18.197300 6.507200
48.024401 16.616281 -0.804542 169.335102 -88.974069 -154.274883 0.000000 0.000000 0.000000 -15.421125 -22.434194 -17.363822 2.077963 9.026568 25.878515 1.045011 3.248725 -20.737592 0.127193 -2.298916 -6.332562 0.000000 0.000000 0.000000 16.950853 21.545885 -13.874206 -1.381379 -7.436959 21.016677 1.094819 -18.383788 -10.155535 -1.279664 7.168885 -20.216672 -4.973993 -0.027319 -13.718258 1.296317 0.151750 -7.259396 4.184341 0.074789 -0.006779 -9.067966 -4.565990 6.880064 7.196067 -6.858563 2.595500 4.081396 -3.600055 0.235226 0.000000 0.000000 0.000000 -7.122721 1.771537 -7.437015 7.357036 -12.505277 0.807201 -9.700872 48.342033 -23.003090 0.000000 0.000000 0.000000 -7.125000 0.000000 0.000000 -37.280029 49.113571 4.334833 0.000000 0.000000 0.000000 4.339763 5.762296 9.649983 -7.555428 -12.829677 -0.850650 -12.807595 33.098748 -11.332963 0.000000 0.000000 0.000000 7.125000 0.000000 0.000000 10.039566 18.464604 6.442368
48.036078 16.616821 -0.806103 170.179442 -88.917527 -155.153995 0.000000 0.000000 0.000000 -15.453456 -22.217251 -17.593084 2.108697 9.088935 26.073837 1.027794 3.211159 -20.561494 0.119564 -2.215971 -6.103370 0.000000 0.000000 0.000000 16.958452 21.424127 -13.922346 -1.372747 -7.414682 20.949827 1.064076 -18.171727 -10.243802 -1.243127 7.065003 -19.909987 -5.001403 -0.056109 -13.666295 1.331957 0.120536 -7.189567 4.232986 0.059920 0.042322 -9.072898 -4.657987 6.837899 7.185871 -6.968658 2.437471 4.080057 -3.651324 0.201303 0.000000 0.000000 0.000000 -7.122674 1.601956 -8.144296 7.447704 -12.653578 0.826905 -10.016200 47.262735 -23.187507 0.000000 0.000000 0.000000 -7.125000 0.000000 0.000000 -37.666912 49.216141 4.500183 0.000000 0.000000 0.000000 4.219742 5.667035 11.029424 -7.616569 -12.929508 -0.864357 -12.445727 33.167478 -11.149672 0.000000 0.000000 0.000000 7.125000 0.000000 0.000000 10.297647 18.669484 6.566408
48.039750 16.627676 -0.806500 161.908491 -88.911780 -146.993668 0.000000 0.000000 0.000000 -15.629859 -22.469774 -17.616068 2.143634 9.159049 26.293955 1.010960 3.198072 -20.400644 0.016201 -0.059487 -0.164668 0.000000 0.000000 0.000000 16.864373 21.239951 -13.792676 -1.355589 -7.370021 20.816406 0.991068 -17.963795 -11.951737 -0.780736 5.618826 -15.688432 -5.114930 -0.129781 -13.534570 1.293561 0.033326 -7.179171 4.244638 0.020932 -0.008891 -9.205521 -4.637646 6.806249 7.237153 -6.956096 2.570196 4.120319 -3.648262 0.256018 0.000000 0.000000 0.000000 -7.112254 1.500098 -7.978163 7.492409 -12.726688 0.836750 -11.025603 47.360737 -23.278819 0.000000 0.000000 0.000000 -7.125000 0.000000 0.000000 -38.577335 49.135765 4.556476 0.000000 0.000000 0.000000 4.160194 5.613806 11.601276 -7.571717 -12.856274 -0.854283 -12.143027 33.464226 -11.689697 0.000000 0.000000 0.000000 7.125000 0.000000 0.000000 10.492108 18.144025 6.818496
48.044643 16.633600 -0.808500 161.907446 -88.842227 -147.096265 0.000000 0.000000 0.000000 -15.668016 -22.618628 -17.585336 2.174948 9.221372 26.490265 1.013811 3.261222 -20.459948 0.002987 0.352554 0.968743 0.000000 0.000000 0.000000 16.888901 21.108825 -13.666992 -1.336822 -7.320903 20.669672 0.894272 -17.487686 -12.902659 -0.533598 4.680842 -13.000434 -5.131372 -0.149391 -13.448891 1.300771 0.001596 -7.224944 4.257056 0.008230 -0.099974 -9.263751 -4.627239 7.186016 7.123768 -6.975340 2.475908 4.107724 -3.663433 0.157545 0.000000 0.000000 0.000000 -7.120541 1.621377 -7.744212 7.404473 -12.582938 0.817461 -9.814816 47.511680 -22.890290 0.000000 0.000000 0.000000 -7.125000 0.000000 0.000000 -37.303309 49.004090 4.225121 0.000000 0.000000 0.000000 3.997485 5.702491 13.183049 -7.606568 -12.913115 -0.862082 -11.902080 32.701188 -11.196255 0.000000 0.000000 0.000000 7.125000 0.000000 0.000000 10.676395 18.652025 6.819672
48.050241 16.633089 -0.808076 166.452521 -88.908499 -151.762696 0.000000 0.000000 0.000000 -15.595100 -22.588125 -17.526290 2.192857 9.256712 26.601754 1.024227 3.222703 -20.534796 0.001481 0.251568 0.691265 0.000000 0.000000 0.000000 17.055216 20.903363 -13.580570 -1.329212 -7.300933 20.609900 0.865483 -17.294015 -12.970468 -0.535098 4.687073 -13.018313 -4.965348 -0.143729 -13.454762 1.303693 0.000548 -7.110072 4.165633 0.000640 0.027816 -9.281305 -4.684202 7.102125 7.088256 -7.047778 2.540356 4.094026 -3.698705 0.199468 0.000000 0.000000 0.000000 -7.073466 1.463635 -7.715334 7.401503 -12.578167 0.816823 -9.481732 47.647727 -22.828042 0.000000 0.000000 0.000000 -7.125000 0.000000 0.000000 -36.981421 49.003528 4.177307 0.000000 0.000000 0.000000 3.890851 5.436489 14.657799 -7.719610 -13.097370 -0.887476 -11.235869 31.931545 -10.141951 0.000000 0.000000 0.000000 7.125000 0.000000 0.000000 11.185673 19.739659 6.881641
48.054778 16.632115 -0.804452 163.730124 -88.949651 -149.156077 0.000000 0.000000 0.000000 -15.694788 -22.520489 -17.450476 2.197778 9.266355 26.632151 1.027925 3.158641 -20.535563 0.000470 0.125048 0.343518 0.000000 0.000000 0.000000 17.048592 20.690319 -13.524282 -1.331332 -7.306542 20.626725 0.896926 -17.573975 -13.137800 -0.590427 4.918228 -13.675638 -4.873085 -0.148241 -13.400523 1.239226 -0.009029 -7.024929 4.043755 -0.008297 0.091912 -9.192469 -4.762520 7.025911 6.955758 -7.136710 2.541150 4.026859 -3.739250 0.212739 0.000000 0.000000 0.000000 -6.971527 1.335387 -7.693244 7.408361 -12.589330 0.818315 -9.697799 47.739671 -22.744679 0.000000 0.000000 0.000000 -7.125000 0.000000 0.000000 -37.110725 48.902531 4.092488 0.000000 0.000000 0.000000 3.791639 5.326001 15.965955 -7.865982 -13.335366 -0.921021 -10.903071 31.054552 -9.840513 0.000000 0.000000 0.000000 7.125000 0.000000 0.000000 11.434892 20.055170 6.958569
48.058259 16.631391 -0.803281 163.756972 -88.878660 -149.256469 0.000000 0.000000 0.000000 -15.758748 -22.413787 -17.391551 2.196791 9.264481 26.626200 1.028119 3.134383 -20.524949 0.002447 0.317937 0.873525 0.000000 0.000000 0.000000 17.043106 20.531720 -13.544348 -1.334513 -7.314959 20.651778 0.875127 -17.423463 -13.170914 -0.588833 4.912909 -13.660481 -4.793401 -0.132694 -13.367814 1.172973 0.004419 -6.997850 3.930397 -0.004772 0.103323 -9.010694 -4.833492 6.875595 6.709672 -7.212127 2.745890 3.895039 -3.773631 0.295781 0.000000 0.000000 0.000000 -6.831633 1.299731 -7.556336 7.393045 -12.564261 0.814950 -9.448210 47.961249 -22.491725 0.000000 0.000000 0.000000 -7.125000 0.000000 0.000000 -36.738747 48.732146 3.866979 0.000000 0.000000 0.000000 3.693185 5.377862 17.302938 -8.013246 -13.574341 -0.955243 -11.370884 29.872813 -9.821559 0.000000 0.000000 0.000000 7.125000 0.000000 0.000000 11.105236 20.053705 6.750649
48.061050 16.631000 -0.799215 158.852858 -88.828675 -144.436676 0.000000 0.000000 0.000000 -15.947438 -22.123854 -17.409140 2.196236 9.263371 26.622714 1.044460 2.858668 -20.533936 0.002064 0.295760 0.812612 0.000000 0.000000 0.000000 16.926234 20.508547 -13.455662 -1.330586 -7.304572 20.620945 0.876852 -17.443220 -13.193850 -0.601087 4.962469 -13.801548 -4.825867 -0.164409 -13.294450 1.144151 -0.035293 -6.990732 3.912994 -0.023149 0.075494 -8.906144 -4.860146 6.599994 6.464161 -7.225497 3.026762 3.772982 -3.776918 0.422623 0.000000 0.000000 0.000000 -6.824010 1.266395 -6.608464 7.316151 -12.438404 0.798387 -9.085119 49.054235 -22.002447 0.000000 0.000000 0.000000 -7.125000 0.000000 0.000000 -36.126106 48.382038 3.435530 0.000000 0.000000 0.000000 3.583801 5.352449 17.633224 -8.083017 -13.687337 -0.971678 -11.878176 29.566423 -9.931957 0.000000 0.000000 0.000000 7.125000 0.000000 0.000000 10.741897 19.920336 6.554238
48.062273 16.632309 -0.795030 160.004599 -88.816108 -145.697257 0.000000 0.000000 0.000000 -15.988423 -22.007039 -17.301715 2.190968 9.253078 26.590113 1.043645 2.760887 -20.477807 0.001534 0.246450 0.677079 0.000000 0.000000 0.000000 16.975566 20.539532 -13.266368 -1.323631 -7.286187 20.565945 0.898645 -17.626025 -13.273505 -0.625441 5.060462 -14.081036 -4.672856 -0.170577 -13.177328 1.130631 -0.067248 -7.020184 3.807497 -0.040803 -0.012910 -9.016270 -4.814793 6.488881 6.401822 -7.177728 3.356158 3.762325 -3.757983 0.546924 0.000000 0.000000 0.000000 -6.822152 1.258194 -5.274621 7.251999 -12.333207 0.784555 -8.794709 50.578520 -21.201438 0.000000 0.000000 0.000000 -7.125000 0.000000 0.000000 -35.395686 47.759006 2.738274 0.000000 0.000000 0.000000 3.519419 5.346904 17.677839 -8.121671 -13.749972 -0.980857 -11.684545 29.179813 -9.988613 0.000000 0.000000 0.000000 7.125000 0.000000 0.000000 10.876179 19.872470 6.651036
48.060255 16.634637 -0.793877 162.956539 -88.705784 -148.676566 0.000000 0.000000 0.000000 -15.999179 -22.057402 -17.178082 2.181052 9.233506 26.528443 1.039747 2.911648 -20.517203 0.001224 0.227467 0.624934 0.000000 0.000000 0.000000 17.000635 20.644646 -13.151594 -1.316601 -7.267636 20.510715 0.855406 -17.287818 -13.204588 -0.574573 4.854250 -13.493353 -4.605297 -0.128089 -13.220309 1.121697 -0.026686 -7.121706 3.765263 -0.021685 -0.100444 -8.716258 -4.869436 6.597188 5.858715 -7.243798 3.613829 3.515005 -3.791692 0.582463 0.000000 0.000000 0.000000 -6.820190 1.467506 -4.236588 7.223746 -12.286826 0.778561 -9.576996 51.266836 -21.394469 0.000000 0.000000 0.000000 -7.125000 0.000000 0.000000 -36.168048 47.807676 2.863916 0.000000 0.000000 0.000000 3.479518 5.667958 18.001205 -8.329413 -14.085377 -1.030788 -11.717849 28.084468 -9.862163 0.000000 0.000000 0.000000 7.125000 0.000000 0.000000 10.858161 19.997660 6.608667
48.057404 16.636252 -0.787197 157.123180 -88.692234 -142.824040 0.000000 0.000000 0.000000 -16.162330 -22.159983 -17.111546 2.164259 9.200206 26.423552 1.039184 2.920566 -20.516428 0.002792 0.338802 0.930953 0.000000 0.000000 0.000000 16.815564 20.767454 -13.096258 -1.312748 -7.257371 20.480212 0.924904 -17.791779 -13.188929 -0.617668 5.029211 -13.991950 -4.628245 -0.186368 -13.360654 1.121474 -0.106908 -7.233381 3.768304 -0.062637 -0.136235 -8.635609 -4.824428 6.815141 5.475294 -7.202097 3.840709 3.371033 -3.776923 0.595450 0.000000 0.000000 0.000000 -6.906295 1.612431 -2.380711 7.158613 -12.179978 0.764752 -11.104731 52.648572 -21.377814 0.000000 0.000000 0.000000 -7.125000 0.000000 0.000000 -37.428760 47.575022 2.748873 0.000000 0.000000 0.000000 3.351538 6.012436 17.939568 -8.482689 -14.332281 -1.068437 -11.976017 26.815725 -10.034169 0.000000 0.000000 0.000000 7.125000 0.000000 0.000000 10.668494 19.813264 6.533875
